# xmcd CD database file
#
# Track frame offsets:
#	150
#	22929
#	43983
#	66480
#	87871
#	108800
#	129692
#	149132
#	168223
#	187731
#	209071
#	229648
#	249951
#	273209
#	294502
#
# Disc length: 4177 seconds
#
# Revision: 0
# Processed by: cddbd v1.5.1PL0 Copyright (c) Steve Scherf et al.
# Submitted via: NeoAudio 9.9.9
#
DISCID=d8104f0f
DTITLE=La Sonora Carruseles - X-Treme Salsa
DYEAR=2003
DGENRE=Salsa
TTITLE0=me goce el bongo
TTITLE1=puras mentiras
TTITLE2=pachanga pa' oriente
TTITLE3=coquetona
TTITLE4=la comay
TTITLE5=repica el tambo
TTITLE6=este es mi son
TTITLE7=amor mexicano
TTITLE8=la salsa la traigo yo
TTITLE9=vengo caliente
TTITLE10=lo que pide la gente
TTITLE11=rumba de mulatos
TTITLE12=cocinando la salsa
TTITLE13=el baile del boogaloo
TTITLE14=boogaloo pa' gozar
EXTD=YEAR: 2003
EXTT0=
EXTT1=
EXTT2=
EXTT3=
EXTT4=
EXTT5=
EXTT6=
EXTT7=
EXTT8=
EXTT9=
EXTT10=
EXTT11=
EXTT12=
EXTT13=
EXTT14=
PLAYORDER=
